PathFileType	4	(X/Y/Z)	/Users/niels/Desktop/University/Third Semester/Perception and Action/Exam/Gymnastics Motion Tracking/Code for Gym Tracking/Analyzed Data/Webcam_Backflip/id17_1_trajectory_Sports2D/id17_1_trajectory_Sports2D_px_person00.trc
DataRate	CameraRate	NumFrames	NumMarkers	Units	OrigDataRate	OrigDataStartFrame	OrigNumFrames
29.702970297029704	29.702970297029704	9	22	m	29.702970297029704	12	101
Frame#	Time	Hip			RHip			RKnee			RAnkle			RBigToe			RSmallToe			RHeel			LHip			LKnee			LAnkle			LBigToe			LSmallToe			LHeel			Neck			Head			Nose			RShoulder			RElbow			RWrist			LShoulder			LElbow			LWrist		
		X1	Y1	Z1	X2	Y2	Z2	X3	Y3	Z3	X4	Y4	Z4	X5	Y5	Z5	X6	Y6	Z6	X7	Y7	Z7	X8	Y8	Z8	X9	Y9	Z9	X10	Y10	Z10	X11	Y11	Z11	X12	Y12	Z12	X13	Y13	Z13	X14	Y14	Z14	X15	Y15	Z15	X16	Y16	Z16	X17	Y17	Z17	X18	Y18	Z18	X19	Y19	Z19	X20	Y20	Z20	X21	Y21	Z21	X22	Y22	Z22
12	0.40399999999999997	0.9541742191351895	-0.9698698637604785	0.0	0.7826063260861074	-0.9766936266523321	0.0	0.6540687264437055	-1.0472030958142884	0.0	0.7735065957289781	-0.6077276092387646	0.0	0.08486165483123465	-0.9999627615444416	0.0	0.9531796874847706	-1.1330214840699777	0.0	0.9194243837702302	-1.0767561789412015	0.0	1.1209556489058727	-0.9862837368598324	0.0	1.0981801954129842	-1.0518299825616126	0.0	1.2168823087755103	-1.0487857505174685	0.0	1.053709716306425	-1.0983365484299836	0.0	1.0900341791097548	-1.0957419440444	0.0	0.0743418464274035	-0.9856217236448865	0.0	0.9304949772626271	-0.2821842072591323	0.0	1.0130102175050268	-0.007023548373120122	0.0	1.0116698971386304	-0.07256380563263919	0.0	0.6537086616950408	-0.38583730128325083	0.0	0.5120592375541925	-0.8248336178909182	0.0	0.49735351920706194	-1.0705203717457077	0.0	1.224486394659798	-0.37848394377676414	0.0	1.276682185985623	-0.8276987093309257	0.0	1.2193528725051375	-1.073614328759913	0.0
13	0.43766666666666665	0.9563206835179457	-0.9309506773953362	0.0	0.7873548694308123	-0.9408269862691621	0.0	0.6533160736410523	-1.0514385171441645	0.0	0.6949577196661597	-0.7057014661099688	0.0	0.08486160097850248	-0.9999627527045225	0.0	0.9531796874818844	-1.133021483922201	0.0	0.9194243679668078	-1.0767561773031478	0.0	1.1204451342759854	-0.9530471481395829	0.0	1.0972533095574275	-1.0519284922604426	0.0	1.1003404289691054	-1.0396810126790754	0.0	1.0537097170429857	-1.0983365492898256	0.0	1.0900341794557575	-1.095741944947587	0.0	0.07434318486665412	-0.985621895026238	0.0	0.8376163962553709	-0.22163579971859915	0.0	1.0092210188160793	-0.00999365791670172	0.0	1.0109166449284381	-0.03796023751474983	0.0	0.6043361407636109	-0.32006784807264566	0.0	0.4896231118214593	-0.7509510826887252	0.0	0.4762343758508806	-1.054295095484131	0.0	1.1103008067725508	-0.31278028638744354	0.0	1.150780950726086	-0.7568808674149909	0.0	1.0981472194445157	-1.0577650445289672	0.0
14	0.47133333333333327	0.9587662427436797	-0.891184098334294	0.0	0.7930096531277365	-0.9034512703027624	0.0	0.6524673598001671	-1.0546484563042327	0.0	0.5946511220556818	-0.8144329724729851	0.0	0.08486153154338667	-0.999962741650277	0.0	0.953179687486734	-1.133021483860181	0.0	0.9194242161924585	-1.0767561251049875	0.0	1.1188643033086276	-0.9173203517370873	0.0	1.0959284953114323	-1.052197382770423	0.0	0.9182832746906906	-1.025890351119334	0.0	1.0537097186664162	-1.0983365504326703	0.0	1.0900341804454141	-1.095741946097422	0.0	0.07434488164462559	-0.9856221056085162	0.0	0.7130542969825495	-0.16268628318212847	0.0	1.0031884302053464	-0.015259548832007905	0.0	1.0076977417174893	-0.015145024345987001	0.0	0.5353007773210385	-0.2531632926929352	0.0	0.44757601027630767	-0.6769727568071761	0.0	0.4373184878910642	-1.026327435317952	0.0	0.9578452660716783	-0.24573299999221437	0.0	0.9859442259316782	-0.68464355994958	0.0	0.9435758946472418	-1.030558442490928	0.0
15	0.505	0.9608271618777188	-0.8537698416318135	0.0	0.7988573100701799	-0.868164142945172	0.0	0.6512086709598015	-1.0571259943014033	0.0	0.49921850071119134	-0.9090516739195236	0.0	0.0848614697455363	-0.9999627324573184	0.0	0.9531796875071532	-1.1330214840464423	0.0	0.9194238342373003	-1.0767559845449077	0.0	1.1160889124033238	-0.8819709381992521	0.0	1.0944863177266773	-1.0527260874462396	0.0	0.6903179135963956	-1.0092537802053096	0.0	1.0537097213771343	-1.098336551514079	0.0	1.0900341823474302	-1.0957419470931844	0.0	0.07434633741633456	-0.9856222735102079	0.0	0.5905784672787844	-0.1097151229029754	0.0	0.9955988324247776	-0.01935967428374866	0.0	1.0021992579647316	-0.0018166825171272698	0.0	0.4671904027552695	-0.19235805903761544	0.0	0.40348913032933353	-0.6101539809263792	0.0	0.3993658082321075	-0.9895047520307868	0.0	0.8068413996602268	-0.18451793368935882	0.0	0.8240152639657458	-0.6175656435047582	0.0	0.7947538828200559	-0.9939569722965189	0.0
16	0.5386666666666666	0.961978181479963	-0.820298404730698	0.0	0.8043908197555243	-0.8369874760268182	0.0	0.6506066495404217	-1.0591445256097312	0.0	0.44648575437810717	-0.9748140291048489	0.0	0.08486146684190829	-0.9999627337821027	0.0	0.9531796875519428	-1.1330214847124112	0.0	0.9194231443345706	-1.0767557218054442	0.0	1.1119777885152904	-0.8488236517543538	0.0	1.093512636565985	-1.0535995353590695	0.0	0.4620725789413652	-0.993473982764574	0.0	1.053709724949958	-1.098336551739816	0.0	1.0900341852163888	-1.095741947064846	0.0	0.07434625781564475	-0.9856222282731782	0.0	0.5228971874421251	-0.0699206281581174	0.0	0.987102977661484	-0.02037057995466578	0.0	0.9948820081726362	0.005003274751200253	0.0	0.4328503991143581	-0.14791176191368252	0.0	0.38608757760095047	-0.5585233273795984	0.0	0.39107316665023784	-0.9495032409297218	0.0	0.7195075344958043	-0.13947120490224915	0.0	0.7305593398809762	-0.5639323465375817	0.0	0.713399880283553	-0.9525795127183955	0.0
17	0.5723333333333332	0.9619126232270663	-0.7909517778982554	0.0	0.8092985931734907	-0.8101985874746098	0.0	0.6527411796700863	-1.0607335992337092	0.0	0.46057090781534826	-1.0115312425310368	0.0	0.08486160850574985	-0.9999627597198926	0.0	0.953179687626493	-1.1330214861051577	0.0	0.9194221593814783	-1.0767553348253427	0.0	1.106361298720722	-0.8186493061836001	0.0	1.0937029686779174	-1.0548413948463964	0.0	0.2793410146568981	-0.9818058432633104	0.0	1.0537097282758896	-1.098336549745163	0.0	1.0900341885524893	-1.0957419445741756	0.0	0.07434251084917815	-0.985621696282179	0.0	0.5458349610856176	-0.04849486649548141	0.0	0.9781743722888442	-0.01814760024539378	0.0	0.9863370989823447	0.00819283515108195	0.0	0.4549206709070242	-0.12657416943507693	0.0	0.4153756940786133	-0.5264844615045648	0.0	0.43210002953092436	-0.9115068671989761	0.0	0.7383411220996623	-0.1174090626985001	0.0	0.7503029894270553	-0.5287510968778233	0.0	0.7414625599537917	-0.9106467330800678	0.0
18	0.606	0.9604768645938774	-0.7655078928042938	0.0	0.8133710324446269	-0.7873173625638551	0.0	0.6596168572494123	-1.0617605682078974	0.0	0.5304662648419795	-1.0246512771290335	0.0	0.08486200778384755	-0.9999628283281637	0.0	0.9531796877244085	-1.1330214883481564	0.0	0.9194211034760439	-1.07675489981916	0.0	1.0991227803951344	-0.7917885364395149	0.0	1.0954139817812474	-1.0563003606474817	0.0	0.16209231741105415	-0.9751333195410004	0.0	1.0537097288297905	-1.0983365436754515	0.0	1.0900341908396396	-1.0957419377465634	0.0	0.07433232893868032	-0.9856203328710086	0.0	0.6449797699142334	-0.044091196739790485	0.0	0.9690872077430085	-0.013476894562229978	0.0	0.9770917101256036	0.009913558264342802	0.0	0.5244897831913267	-0.12577142812535144	0.0	0.48369847978853253	-0.5114541269729791	0.0	0.5143568335105105	-0.877825252628332	0.0	0.8467006824089758	-0.11574931498474637	0.0	0.8655354053784611	-0.5097865346336371	0.0	0.8610617057129564	-0.8699285041725785	0.0
19	0.6396666666666666	0.9576946676553318	-0.7440351881432133	0.0	0.8164443924091852	-0.7679590678418153	0.0	0.6719244091698142	-1.0621483612691218	0.0	0.6196275001110976	-1.0191323306092432	0.0	0.08486277014339426	-0.9999629554597605	0.0	0.9531796878149252	-1.1330214911847665	0.0	0.9194205658661297	-1.0767546328059405	0.0	1.0904168071184441	-0.7686141148211072	0.0	1.0981932875475793	-1.0576144341178546	0.0	0.1036084745703007	-0.9724050603388371	0.0	1.0537097223064786	-1.0983365317013976	0.0	1.0900341890907792	-1.0957419248755924	0.0	0.07431321380262605	-0.9856178465400686	0.0	0.7683675777695009	-0.05046635033248061	0.0	0.9599798823584855	-0.007325717351507755	0.0	0.9675287993198052	0.011397115648538047	0.0	0.6087199328242731	-0.13629579455739302	0.0	0.5623002859408248	-0.5063902174661208	0.0	0.6082017332943908	-0.8484808124012411	0.0	0.9836235008233394	-0.12526021688690372	0.0	1.0118717425341717	-0.5000227611913972	0.0	1.0093016558304373	-0.830725602329865	0.0
20	0.6733333333333333	0.9538440810658958	-0.7269368930424606	0.0	0.8184164891975049	-0.7521192207174617	0.0	0.6887062509132483	-1.0620377370121186	0.0	0.695852885514309	-0.9997326762296583	0.0	0.08486391375330832	-0.9999631412649163	0.0	0.9531796878283535	-1.133021493605279	0.0	0.9194216352122432	-1.07675494727972	0.0	1.0808069889355052	-0.7495920138844657	0.0	1.1009233521781918	-1.0584659199817394	0.0	0.08533147552322719	-0.9720607461727463	0.0	1.0537097029026796	-1.0983365132508904	0.0	1.0900341787079133	-1.095741905777661	0.0	0.07428495248443011	-0.9856142651183305	0.0	0.8701338267029911	-0.061732777865435816	0.0	0.9509584618863308	-0.0005084100262459219	0.0	0.9579430644991106	0.013072880714675958	0.0	0.6784942718834843	-0.150108444110207	0.0	0.6256795427823625	-0.5052559209572269	0.0	0.6868677345160743	-0.8228593223940734	0.0	1.095260293898178	-0.13790627326222973	0.0	1.1326589491507522	-0.49346608097299316	0.0	1.1307029624259866	-0.7934265562522937	0.0
